<?xml version="1.0" encoding="UTF-8"?>
<svg id="Layer_2" data-name="Layer 2" xmlns="http://www.w3.org/2000/svg" viewBox="0 0 172.85 26.63">
  <defs>
    <style>
      .cls-1 {
        fill: #2a4299;
      }
    </style>
  </defs>
  <g id="Layer_1-2" data-name="Layer 1">
    <g>
      <path class="cls-1" d="M102.02,17.63v2.15c0,3.64-2.95,6.58-6.58,6.58h-20.47c-1.5,0-2.71-1.22-2.71-2.71h0c0-1.5,1.22-2.71,2.71-2.71h19.22c1.33,0,2.4-1.08,2.4-2.4v-.23c0-1.33-1.08-2.4-2.4-2.4h-16.39c-3.51,0-6.35-2.84-6.35-6.35v-1.97c0-4.19,3.39-7.58,7.58-7.58h19.22c1.5,0,2.71,1.22,2.71,2.71h0c0,1.5-1.22,2.71-2.71,2.71h-19.04c-1.28,0-2.32,1.04-2.32,2.32v.4c0,1.28,1.04,2.32,2.32,2.32h15.66c3.96,0,7.16,3.21,7.16,7.16Z"/>
      <path class="cls-1" d="M172.85,6.96v17.09c0,1.28-1.04,2.32-2.32,2.32h-.78c-1.29,0-2.33-1.04-2.33-2.32V7.79c0-1.13-.92-2.04-2.04-2.04h-16.13c-1.13,0-2.04.92-2.04,2.04v16.25c0,1.28-1.05,2.33-2.33,2.33h-.78c-1.29,0-2.33-1.04-2.33-2.33V6.96c0-3.67,2.97-6.64,6.64-6.64h17.81c3.67,0,6.64,2.97,6.64,6.64Z"/>
      <g>
        <path class="cls-1" d="M55.37,26.4h-8.9c-.86,0-1.36-.98-.86-1.68l2.54-3.51,1.88-2.59c.42-.57,1.27-.58,1.69-.01l1.86,2.53,2.63,3.58c.51.7.02,1.68-.85,1.68Z"/>
        <path class="cls-1" d="M67.82,25.67l-.63.46c-1.03.76-2.49.54-3.25-.5l-6.48-8.82-3.87-5.26-1.86-2.53c-.42-.57-1.27-.56-1.69.01l-1.88,2.59-3.76,5.19-6.41,8.86c-.76,1.04-2.21,1.27-3.25.52l-.63-.46c-1.04-.76-1.27-2.21-.52-3.25l4.13-5.7,7.47-10.32,3.33-4.59h.01c.41-.63,1.13-1.05,1.95-1.05h.79c.83,0,1.56.44,1.97,1.09l3.35,4.55,5.41,7.36,6.32,8.6c.76,1.03.54,2.49-.5,3.25Z"/>
      </g>
      <g>
        <path class="cls-1" d="M126.3,26.4h-8.9c-.86,0-1.36-.98-.86-1.68l2.54-3.51,1.88-2.59c.42-.57,1.27-.58,1.69-.01l1.86,2.53,2.63,3.58c.51.7.02,1.68-.85,1.68Z"/>
        <path class="cls-1" d="M138.75,25.67l-.63.46c-1.03.76-2.49.54-3.25-.5l-6.48-8.82-3.87-5.26-1.86-2.53c-.42-.57-1.27-.56-1.69.01l-1.88,2.59-3.76,5.19-6.41,8.86c-.76,1.04-2.21,1.27-3.25.52l-.63-.46c-1.04-.76-1.27-2.21-.52-3.25l4.13-5.7,7.47-10.32,3.33-4.59h.01c.41-.63,1.13-1.05,1.95-1.05h.79c.83,0,1.56.44,1.97,1.09l3.35,4.55,5.41,7.36,6.32,8.6c.76,1.03.54,2.49-.5,3.25Z"/>
      </g>
      <path class="cls-1" d="M27.69,4.76c-2.29-2.29-5.46-3.71-8.96-3.71H3.19C1.43,1.05,0,2.48,0,4.24v18.97c0,1.76,1.43,3.19,3.19,3.19h15.54c7,0,12.67-5.67,12.67-12.67,0-3.5-1.42-6.67-3.71-8.97ZM17.68,22.02H5.42V5.43h12.26c2.3,0,4.37.93,5.87,2.43s2.43,3.58,2.43,5.87c0,4.58-3.71,8.29-8.3,8.29Z"/>
    </g>
  </g>
</svg>